<?xml version="1.0" encoding="iso-8859-1"?>
<!-- Generator: Adobe Illustrator 17.1.0, SVG Export Plug-In . SVG Version: 6.00 Build 0)  -->
<!DOCTYPE svg PUBLIC "-//W3C//DTD SVG 1.1//EN" "http://www.w3.org/Graphics/SVG/1.1/DTD/svg11.dtd">
<svg version="1.1" id="Layer_1" xmlns="http://www.w3.org/2000/svg" xmlns:xlink="http://www.w3.org/1999/xlink" x="0px" y="0px"
	 viewBox="0 0 600 600" style="enable-background:new 0 0 600 600;" xml:space="preserve">
<rect x="-2" style="fill:none;" width="600" height="600"/>
<g>
	<g>
		<g>
			<path style="fill:#767DD5;" d="M422.015,429.896l-6.936-14.026c40.351-19.946,65.415-60.274,65.415-105.254
				c0-64.704-52.634-117.339-117.339-117.339c-44.445,0-84.567,24.637-104.704,64.307l-13.949-7.089
				c22.818-44.942,68.287-72.863,118.653-72.863c73.329,0,132.984,59.655,132.984,132.984
				C496.139,361.585,467.736,407.291,422.015,429.896z"/>
		</g>
		<g>
			
				<rect x="459.749" y="444.931" transform="matrix(0.7071 0.7072 -0.7072 0.7071 465.2213 -217.5176)" style="fill:#767DD5;" width="70.801" height="15.644"/>
		</g>
		<g>
			
				<rect x="178.929" y="168.871" transform="matrix(0.7071 0.7071 -0.7071 0.7071 189.1092 -103.1649)" style="fill:#767DD5;" width="80.313" height="15.644"/>
		</g>
		<g>
			<rect x="358" y="74" style="fill:#767DD5;" width="16" height="78"/>
		</g>
		<g>
			
				<rect x="500.861" y="144.069" transform="matrix(0.7071 0.7071 -0.7071 0.7071 277.6924 -306.3822)" style="fill:#767DD5;" width="15.644" height="75.889"/>
		</g>
		<g>
			<rect x="513" y="307" style="fill:#767DD5;" width="78" height="16"/>
		</g>
	</g>
	<g>
		<g>
			<path style="fill:#121331;" d="M360.313,424.655l-14.79-5.118c4.362-12.597,6.577-25.805,6.577-39.258
				c0-14.675-2.62-29.006-7.784-42.581c-17.578-46.225-62.611-77.279-112.076-77.279c-45.79,0-88.21,26.684-108.073,67.982
				l-14.102-6.784c22.452-46.683,70.411-76.843,122.175-76.843c55.912,0,106.827,35.11,126.697,87.363
				c5.844,15.363,8.808,31.558,8.808,48.143C367.746,395.481,365.24,410.408,360.313,424.655z"/>
		</g>
		<g>
			<path style="fill:#121331;" d="M322.2,527H100.234c-51.305,0-91.495-39.026-91.495-89.285c0-26.371,10.985-50.085,31.038-67.594
				c-0.481-2.872-0.726-5.696-0.726-8.622c0-28.777,23.414-55.441,52.191-55.441S143.434,339,143.434,355h-15.645
				c0-16-16.394-33.253-36.546-33.253s-36.546,18.04-36.546,38.193c0,3.27,0.435,7.332,1.283,10.456l1.367,5.438l-4.11,3.407
				c-18.617,14.721-28.853,35.117-28.853,58.195c0,41.489,33.315,73.565,75.85,73.565H322.2c49.663,0,88.57-37.558,88.57-86.174
				c0-38.494-24.423-70.707-62.229-82.456l4.645-14.811c43.803,13.621,73.23,52.582,73.23,97.379
				C426.415,482.324,380.641,527,322.2,527z"/>
		</g>
	</g>
</g>
</svg>
