<?xml version="1.0" encoding="iso-8859-1"?>
<!-- Generator: Adobe Illustrator 17.1.0, SVG Export Plug-In . SVG Version: 6.00 Build 0)  -->
<!DOCTYPE svg PUBLIC "-//W3C//DTD SVG 1.1//EN" "http://www.w3.org/Graphics/SVG/1.1/DTD/svg11.dtd">
<svg version="1.1" id="Layer_1" xmlns="http://www.w3.org/2000/svg" xmlns:xlink="http://www.w3.org/1999/xlink" x="0px" y="0px"
	 viewBox="0 0 600 600" style="enable-background:new 0 0 600 600;" xml:space="preserve">
<rect x="1" style="fill:none;" width="600" height="600"/>
<g>
	<g>
		<path style="fill:#767DD5;" d="M273.92,225.972l-14.225-6.359c17.655-39.449,56.975-64.947,100.182-64.947
			c34.527,0,66.339,15.761,87.288,43.252l-12.384,9.432c-17.983-23.581-45.283-37.106-74.904-37.106
			C322.801,170.244,289.065,192.122,273.92,225.972z"/>
	</g>
	<g>
		<path style="fill:#767DD5;" d="M475.425,389H376v-15h99.425c33.303,0,59.394-27.483,59.394-59.934
			c0-20.112-10.657-39.118-29.241-50.346l8.048-13.846c23.368,14.103,36.771,38.451,36.771,64.162
			C550.397,355.22,517.468,389,475.425,389z"/>
	</g>
	<g>
		<g>
			<path style="fill:#121331;" d="M336.106,355.836l-14.712-5.112c3.461-9.995,5.218-20.478,5.218-31.188
				c0-11.654-2.077-23.033-6.177-33.82c-13.966-36.71-49.749-61.387-89.038-61.387c-36.383,0-70.089,21.193-85.866,54.008
				l-14.042-6.755c18.355-38.171,57.568-62.832,99.908-62.832c45.717,0,87.349,28.708,103.597,71.428
				c4.777,12.551,7.196,25.802,7.196,39.358C342.191,331.981,340.145,344.197,336.106,355.836z"/>
		</g>
		<g>
			<path style="fill:#121331;" d="M303.975,446h-179.08c-40.811,0-75.292-34.699-75.292-76.81c0-21.969,9.296-42.604,25.072-56.859
				c-0.365-2.221-0.616-4.833-0.616-7.602c0-24.174,19.55-42.512,43.587-42.512c24.03,0,43.579,13.784,43.579,44.784h-15.579
				c0-15-12.559-29.096-28.001-29.096s-28.008,12.068-28.008,27.647c0,2.678,0.365,5.311,0.981,7.563l0.327,1.066l-0.251,4.686
				l-2.815,3.172c-13.997,11.076-22.699,28.384-22.699,46.96c0,33.668,27.347,61.002,59.714,61.002h179.08
				c37.928,0,69.968-32.054,69.968-71.275c0-31.249-20.675-59.827-49.155-68.681l4.625-14.609
				c34.832,10.832,60.109,45.468,60.109,83.366C389.521,406.465,350.346,446,303.975,446z"/>
		</g>
	</g>
	<g>
		<path style="fill:#767DD5;" d="M511.413,286.629l-14.613-5.386c2.191-5.949,3.309-12.217,3.309-18.637
			c0-29.636-24.114-53.735-53.75-53.735s-53.742,24.098-53.742,53.735c0,1.947,0.099,3.879,0.304,5.781l-15.487,1.673
			c-0.266-2.449-0.396-4.929-0.396-7.455c0-38.217,31.097-69.313,69.321-69.313s69.329,31.097,69.329,69.313
			C515.688,270.867,514.25,278.961,511.413,286.629z"/>
	</g>
</g>
</svg>
