<?xml version="1.0" encoding="iso-8859-1"?>
<!-- Generator: Adobe Illustrator 17.1.0, SVG Export Plug-In . SVG Version: 6.00 Build 0)  -->
<!DOCTYPE svg PUBLIC "-//W3C//DTD SVG 1.1//EN" "http://www.w3.org/Graphics/SVG/1.1/DTD/svg11.dtd">
<svg version="1.1" id="Layer_1" xmlns="http://www.w3.org/2000/svg" xmlns:xlink="http://www.w3.org/1999/xlink" x="0px" y="0px"
	 viewBox="0 0 600 600" style="enable-background:new 0 0 600 600;" xml:space="preserve">
<rect style="fill:none;" width="600" height="600"/>
<g>
	<g>
		<g>
			<path style="fill:#121331;" d="M440.699,255.142l-12.758-4.433c4.36-12.586,6.577-25.806,6.577-39.276
				c0-14.697-2.619-29.051-7.791-42.627c-17.587-46.255-62.661-77.338-112.168-77.338c-45.84,0-88.302,26.703-108.171,68.037
				l-12.177-5.858c22.105-45.978,69.343-75.689,120.348-75.689c55.082,0,105.235,34.579,124.794,86.046
				c5.759,15.119,8.674,31.083,8.674,47.429C448.027,226.407,445.56,241.118,440.699,255.142z"/>
		</g>
		<g>
			<path style="fill:#121331;" d="M403.837,349H183.544c-51.196,0-89.799-35.636-89.799-84.094c0-25.476,10.614-47.509,30.76-64.832
				c-0.455-2.652-0.673-5.053-0.673-7.797c0-27.904,22.785-52.873,50.787-52.873S225.406,166,225.406,188h-13.51
				c0-15-16.722-34.974-37.277-34.974s-37.277,17.831-37.277,38.281c0,2.678,0.277,5.729,0.884,8.368
				c0.297,0.66,0.488,1.671,0.561,2.423c0.29,3.008-1.412,6.165-4.09,7.353c-17.963,14.856-27.442,33.183-27.442,55.136
				c0,40.754,32.798,70.414,76.29,70.414h220.293c50.688,0,88.909-35.008,88.909-82.952c0-37.416-23.932-67.546-62.463-79.525
				l4.011-12.618c44.388,13.813,71.962,48.694,71.962,92.245C506.255,307.799,462.223,349,403.837,349z"/>
		</g>
	</g>
	<g>
		<path style="fill:#767DD5;" d="M305.785,522.119h-0.706c-2.863,0-5.666-0.303-8.364-0.844
			c-11.412-2.335-20.971-9.829-26.228-20.542c-5.515-11.254-5.515-24.671,0-35.872l28.524-57.931c1.135-2.296,3.47-3.76,6.036-3.773
			c0.007,0,0.02,0,0.026,0c2.553,0,4.888,1.438,6.036,3.72l28.926,57.549c5.99,11.927,5.713,26.07-0.752,37.838
			c-6.161,11.227-16.828,18.378-29.262,19.631C308.635,522.039,307.217,522.119,305.785,522.119z M305.132,425.07l-22.521,45.754
			c-3.681,7.481-3.681,16.439,0.007,23.959c3.397,6.94,9.525,11.768,16.801,13.246c1.827,0.383,3.72,0.581,5.66,0.581h0.706
			c0.97,0,1.926-0.053,2.87-0.145c7.949-0.805,14.796-5.436,18.787-12.705c4.321-7.876,4.519-17.323,0.521-25.265L305.132,425.07z"
			/>
	</g>
	<g>
		<path style="fill:#767DD5;" d="M189.369,466.391h-0.495c-2.131,0-4.255-0.211-6.313-0.646
			c-8.648-1.768-15.898-7.441-19.876-15.568c-4.162-8.483-4.162-18.602,0-27.046l20.12-40.859c1.135-2.296,3.47-3.76,6.036-3.773
			c0.007,0,0.02,0,0.026,0c2.553,0,4.888,1.438,6.036,3.72l20.403,40.582c4.519,8.998,4.308,19.671-0.561,28.55
			c-4.664,8.496-12.751,13.919-22.178,14.869C191.565,466.338,190.477,466.391,189.369,466.391z M188.933,400.412l-14.123,28.682
			c-2.329,4.723-2.329,10.383,0.007,15.146c2.15,4.393,5.871,7.335,10.462,8.272c1.174,0.251,2.381,0.369,3.595,0.369h0.495
			c0.594,0,1.181-0.026,1.761-0.092c5.013-0.501,9.281-3.404,11.768-7.942c2.738-4.987,2.863-10.95,0.336-15.977L188.933,400.412z"
			/>
	</g>
	<g>
		<path style="fill:#767DD5;" d="M424.194,466.391h-0.495c-2.124,0-4.248-0.211-6.313-0.646
			c-8.655-1.768-15.898-7.441-19.882-15.568c-4.156-8.483-4.156-18.602,0.007-27.046l20.12-40.859
			c1.135-2.296,3.47-3.76,6.036-3.773c0.007,0,0.02,0,0.026,0c2.553,0,4.888,1.438,6.036,3.72l20.403,40.582
			c4.519,8.998,4.308,19.671-0.561,28.537c-4.664,8.51-12.751,13.932-22.184,14.882
			C426.384,466.338,425.289,466.391,424.194,466.391z M423.759,400.412l-14.123,28.682c-2.329,4.723-2.329,10.383,0.007,15.146
			c2.15,4.393,5.864,7.335,10.462,8.272c1.174,0.251,2.381,0.369,3.595,0.369h0.495c0.594,0,1.174-0.026,1.755-0.092
			c5.013-0.515,9.281-3.404,11.781-7.942c2.731-4.987,2.856-10.95,0.33-15.977L423.759,400.412z"/>
	</g>
</g>
</svg>
