<?xml version="1.0" encoding="iso-8859-1"?>
<!-- Generator: Adobe Illustrator 17.1.0, SVG Export Plug-In . SVG Version: 6.00 Build 0)  -->
<!DOCTYPE svg PUBLIC "-//W3C//DTD SVG 1.1//EN" "http://www.w3.org/Graphics/SVG/1.1/DTD/svg11.dtd">
<svg version="1.1" id="Layer_1" xmlns="http://www.w3.org/2000/svg" xmlns:xlink="http://www.w3.org/1999/xlink" x="0px" y="0px"
	 viewBox="0 0 200 200" style="enable-background:new 0 0 200 200;" xml:space="preserve">
<path style="fill:#F4F3F8;" d="M164.524,200.168H35.112c-19.492,0-35.294-15.802-35.294-35.294V35.462
	c0-19.492,15.802-35.294,35.294-35.294h129.412c19.492,0,35.294,15.802,35.294,35.294v129.412
	C199.818,184.366,184.016,200.168,164.524,200.168z"/>
<g>
	<g>
		<path style="fill:#121331;" d="M100.45,155.26h-0.713c-2.521,0-5.042-0.255-7.494-0.758c-10.064-2.059-18.503-8.681-23.15-18.169
			c-4.924-10.046-4.924-22.011,0-32.008l28.766-58.42c0.346-0.715,1.165-1.122,1.869-1.165c0.786,0,1.511,0.444,1.861,1.149
			l29.169,58.035c5.348,10.634,5.095,23.254-0.672,33.759c-5.449,9.934-14.87,16.269-25.838,17.385
			C103,155.194,101.729,155.26,100.45,155.26z M99.75,51.507l-26.917,54.659c-4.354,8.846-4.354,19.437,0.008,28.332
			c4.073,8.317,11.453,14.118,20.242,15.918c2.175,0.446,4.415,0.672,6.655,0.672h0.713c1.14,0,2.264-0.057,3.376-0.171
			c9.587-0.973,17.823-6.529,22.604-15.24c5.107-9.302,5.331-20.474,0.607-29.88L99.75,51.507z"/>
	</g>
	<g>
		<path style="fill:#767DD5;" d="M98.336,142.027v-4.171c0.68,0,1.356-0.033,2.02-0.102c5.022-0.509,9.42-3.114,12.377-7.335
			c3.16-4.509,4.248-10.386,2.904-15.721l4.04-1.018c1.662,6.59,0.375,13.564-3.527,19.134c-3.666,5.227-9.127,8.455-15.371,9.09
			C99.978,141.986,99.163,142.027,98.336,142.027z"/>
	</g>
</g>
</svg>
