<?xml version="1.0" encoding="iso-8859-1"?>
<!-- Generator: Adobe Illustrator 17.1.0, SVG Export Plug-In . SVG Version: 6.00 Build 0)  -->
<!DOCTYPE svg PUBLIC "-//W3C//DTD SVG 1.1//EN" "http://www.w3.org/Graphics/SVG/1.1/DTD/svg11.dtd">
<svg version="1.1" id="Layer_1" xmlns="http://www.w3.org/2000/svg" xmlns:xlink="http://www.w3.org/1999/xlink" x="0px" y="0px"
	 viewBox="0 0 200 200" style="enable-background:new 0 0 200 200;" xml:space="preserve">
<path style="fill:#F4F3F8;" d="M165.024,200.168H35.612c-19.492,0-35.294-15.802-35.294-35.294V35.462
	c0-19.492,15.802-35.294,35.294-35.294h129.412c19.492,0,35.294,15.802,35.294,35.294v129.412
	C200.318,184.366,184.516,200.168,165.024,200.168z"/>
<g>
	<g>
		<path style="fill:#121331;" d="M117.699,86H38.5v-5h79.199c8.566,0,15.278-6.409,15.278-14.802s-6.722-14.886-15.301-14.886
			c-4.038,0-7.745,1.417-10.432,3.916l-3.132-3.344c3.545-3.291,8.359-5.094,13.564-5.094c11.155,0,19.895,8.634,19.895,19.605
			S128.845,86,117.699,86z"/>
	</g>
	<g>
		<path style="fill:#121331;" d="M140.65,153.188c-4.819,0-9.634-2.01-13.564-5.66l3.132-3.365c3.074,2.858,6.78,4.431,10.432,4.431
			c8.292,0,15.301-7.231,15.301-15.796S148.956,117,140.673,117H61.5v-5h79.173c10.773,0,19.873,9.538,19.873,20.594
			C160.546,143.65,151.432,153.188,140.65,153.188z"/>
	</g>
	<g>
		<rect x="38.5" y="96" style="fill:#767DD5;" width="46" height="5"/>
	</g>
	<g>
		<rect x="98.5" y="96" style="fill:#767DD5;" width="23" height="5"/>
	</g>
	<g>
		<rect x="76.5" y="127" style="fill:#767DD5;" width="45" height="5"/>
	</g>
	<g>
		<rect x="38.5" y="127" style="fill:#767DD5;" width="23" height="5"/>
	</g>
</g>
</svg>
