<?xml version="1.0" encoding="iso-8859-1"?>
<!-- Generator: Adobe Illustrator 17.1.0, SVG Export Plug-In . SVG Version: 6.00 Build 0)  -->
<!DOCTYPE svg PUBLIC "-//W3C//DTD SVG 1.1//EN" "http://www.w3.org/Graphics/SVG/1.1/DTD/svg11.dtd">
<svg version="1.1" id="Layer_1" xmlns="http://www.w3.org/2000/svg" xmlns:xlink="http://www.w3.org/1999/xlink" x="0px" y="0px"
	 viewBox="0 0 600 600" style="enable-background:new 0 0 600 600;" xml:space="preserve">
<g>
	<g>
		<g>
			<path style="fill:#767DD5;" d="M358.007,181.233c-52.797,0-100.203,31.428-120.774,80.054l14.216,5.993
				c18.131-42.903,59.965-70.627,106.558-70.627c63.775,0,115.654,51.878,115.654,115.654c0,44.515-26.022,85.581-66.29,104.615
				l6.596,13.945c45.629-21.58,75.115-68.112,75.115-118.56C489.081,240.038,430.276,181.233,358.007,181.233z"/>
			
				<rect x="453.221" y="444.692" transform="matrix(-0.7072 -0.707 0.707 -0.7072 513.4613 1117.4388)" style="fill:#767DD5;" width="69.779" height="15.419"/>
			
				<rect x="176.428" y="172.597" transform="matrix(0.7071 0.7071 -0.7071 0.7071 190.7631 -99.93)" style="fill:#767DD5;" width="79.16" height="15.419"/>
			<rect x="352.197" y="74.185" style="fill:#767DD5;" width="22" height="87"/>
			
				<rect x="493.735" y="148.158" transform="matrix(0.7071 0.7071 -0.7071 0.7071 278.0766 -300.2272)" style="fill:#767DD5;" width="15.419" height="74.794"/>
			<rect x="505.197" y="314.185" style="fill:#767DD5;" width="87" height="22"/>
		</g>
		<path style="fill:#121331;" d="M348.304,334.95c-18.77-51.493-58.696-77.132-119.459-79.85
			c-84.017-4.217-115.512,48.615-123.213,64.954c-9.588-1.609-19.69-0.638-29.546,3.441c-25.043,10.361-29.817,37.211-30.645,49.891
			c-12.619,3.689-36.91,17.559-37.723,69.874c-1.054,68.218,64.257,82.704,64.92,82.84l1.581,0.166l262.916-0.03
			c0.843-0.09,84.903-9.367,82.117-90.821C416.643,359.067,362.701,338.957,348.304,334.95z M336.367,510.185H75.078
			c-6.641,0-52.752-14.247-51.939-67.014c0.828-53.776,28.989-55.794,30.073-55.855l7.906-0.128l-0.407-7.85
			c-0.015-0.331-1.385-32.236,21.278-41.618c10.587-4.367,21.429-4.236,30.57,0.372c8.87,4.473,15.36,12.61,17.785,22.338
			l14.969-3.732c-3.421-13.671-12.464-25.101-24.769-31.7c7.612-15.356,35.28-55.366,107.609-52.359
			c79.964,3.584,117.205,41.545,117.205,150.545h15.42c0-22-2.439-48.707-7.068-67.585c17.354,7.522,48.265,26.891,50.122,81.227
			C406.121,503.719,338.475,510.185,336.367,510.185z"/>
	</g>
	<rect x="0.197" y="0.185" style="fill:none;" width="600" height="600"/>
</g>
</svg>
