<?xml version="1.0" encoding="iso-8859-1"?>
<!-- Generator: Adobe Illustrator 17.1.0, SVG Export Plug-In . SVG Version: 6.00 Build 0)  -->
<!DOCTYPE svg PUBLIC "-//W3C//DTD SVG 1.1//EN" "http://www.w3.org/Graphics/SVG/1.1/DTD/svg11.dtd">
<svg version="1.1" id="Layer_1" xmlns="http://www.w3.org/2000/svg" xmlns:xlink="http://www.w3.org/1999/xlink" x="0px" y="0px"
	 viewBox="0 0 600 600" style="enable-background:new 0 0 600 600;" xml:space="preserve">
<rect x="0" style="fill:none;" width="600" height="600"/>
<g>
	<g>
		<g>
			<path style="fill:#121331;" d="M457.108,265.7l-12.733-4.42c4.788-13.812,7.222-28.308,7.222-43.067
				c0-16.088-2.881-31.807-8.55-46.724c-19.271-50.723-68.691-84.792-122.966-84.792c-50.249,0-96.789,29.281-118.585,74.598
				l-12.128-5.84c24.02-49.947,75.321-82.227,130.714-82.227c59.825,0,114.31,37.568,135.568,93.474
				c6.248,16.443,9.418,33.78,9.418,51.512C465.066,234.485,462.382,250.455,457.108,265.7z"/>
		</g>
		<g>
			<path style="fill:#121331;" d="M242,371h-64.841c-55.498,0-97.341-40.272-97.341-92.77c0-27.729,11.602-52.515,33.609-71.312
				c-0.539-2.999-0.789-6.118-0.789-9.183c0-30.084,24.572-56.082,54.774-56.082c30.768,0,56.761,31.348,56.761,53.348h-13.47
				c0-7-19.823-39.964-43.291-39.964c-22.77,0-41.304,19.145-41.304,41.81c0,2.973,0.316,6.067,1,9.04
				c0.316,0.697,0.526,1.626,0.592,2.402c0.263,3.012-1.46,6.127-4.157,7.298c-19.797,16.324-30.255,37.644-30.255,61.835
				c0,44.816,36.056,78.58,83.871,78.58H242V371z"/>
		</g>
		<g>
			<path style="fill:none;stroke:#121331;stroke-width:13.4699;stroke-linejoin:round;stroke-miterlimit:10;" d="M241.102,362.884"
				/>
		</g>
		<g>
			<path style="fill:none;stroke:#121331;stroke-width:13.4699;stroke-linejoin:round;stroke-miterlimit:10;" d="M348.861,362.884"
				/>
		</g>
		<g>
			<path style="fill:#121331;" d="M348.861,362.884"/>
		</g>
		<g>
			<path style="fill:#121331;" d="M348.861,362.884"/>
		</g>
		<g>
			<path style="fill:#121331;" d="M450.75,169.458v14.895c30.259,15.495,55.962,43.279,55.962,79.353
				c0,55.248-35.858,92.295-89.225,92.295H357.25L347,371h70.487c60.47,0,102.695-44.227,102.695-106.539
				C520.182,220.142,487.506,186.366,450.75,169.458z"/>
		</g>
	</g>
	<g>
		<path style="fill:#767DD5;" d="M274.777,526.772c-0.526,0-0.073-0.066-0.599-0.184c-3.025-0.737-4.177-3.433-4.177-6.551V398
			h-35.633c-3.723,0-6.367-4.454-6.367-8.176v-20.205c0-0.881-0.013-1.75,0.329-2.565l47.053-113.189
			c1.039-2.526,3.407-2.865,6.13-2.865h80.82c2.42,0,4.67-0.003,5.867,2.115c1.184,2.105,1.158,7.174-0.092,9.252L333.813,322
			h41.988c2.341,0,4.525-1.907,5.748,0.092c1.223,1.999,1.315,2.92,0.25,5.012L280.775,523.885
			C279.604,526.174,277.263,526.772,274.777,526.772z M242,384h32.777c3.723,0,9.223,2.101,9.223,5.824v102.248L364.791,335h-42.87
			c-2.42,0-4.67-4.198-5.867-6.316c-1.184-2.105-1.158-4.573,0.092-6.652L350.44,265h-64.416L242,370.947V384z"/>
	</g>
</g>
</svg>
