<?xml version="1.0" encoding="iso-8859-1"?>
<!-- Generator: Adobe Illustrator 17.1.0, SVG Export Plug-In . SVG Version: 6.00 Build 0)  -->
<!DOCTYPE svg PUBLIC "-//W3C//DTD SVG 1.1//EN" "http://www.w3.org/Graphics/SVG/1.1/DTD/svg11.dtd">
<svg version="1.1" id="Layer_1" xmlns="http://www.w3.org/2000/svg" xmlns:xlink="http://www.w3.org/1999/xlink" x="0px" y="0px"
	 viewBox="0 0 600 600" style="enable-background:new 0 0 600 600;" xml:space="preserve">
<rect x="1" style="fill:none;" width="600" height="600"/>
<g>
	<g>
		<path style="fill:#767DD5;" d="M442.736,338.768l-14.79-5.118c4.362-12.597,6.577-25.805,6.577-39.258
			c0-14.675-2.62-29.006-7.784-42.581c-17.578-46.225-62.611-77.279-112.076-77.279c-45.79,0-88.21,26.684-108.073,67.982
			l-14.102-6.784c22.452-46.683,70.411-76.843,122.175-76.843c55.912,0,106.827,35.11,126.697,87.363
			c5.844,15.363,8.808,31.558,8.808,48.143C450.169,309.594,447.663,324.521,442.736,338.768z"/>
	</g>
	<g>
		<path style="fill:#767DD5;" d="M404.623,441H182.657c-51.305,0-91.495-38.969-91.495-89.228c0-26.371,10.985-50.057,31.038-67.566
			c-0.481-2.872-0.726-5.682-0.726-8.608c0-28.777,23.414-55.49,52.191-55.49S225.857,253,225.857,269h-15.645
			c0-16-16.394-33.197-36.546-33.197s-36.546,18.068-36.546,38.221c0,3.27,0.435,7.346,1.283,10.47l1.367,5.445l-4.11,3.41
			c-18.617,14.721-28.853,35.062-28.853,58.14c0,41.489,33.315,73.51,75.85,73.51h221.966c49.663,0,88.57-37.501,88.57-86.117
			c0-38.494-24.423-70.678-62.229-82.428l4.645-14.797c43.803,13.621,73.23,52.533,73.23,97.33
			C508.838,396.374,463.064,441,404.623,441z"/>
	</g>
</g>
</svg>
