<?xml version="1.0" encoding="iso-8859-1"?>
<!-- Generator: Adobe Illustrator 17.1.0, SVG Export Plug-In . SVG Version: 6.00 Build 0)  -->
<!DOCTYPE svg PUBLIC "-//W3C//DTD SVG 1.1//EN" "http://www.w3.org/Graphics/SVG/1.1/DTD/svg11.dtd">
<svg version="1.1" id="Layer_1" xmlns="http://www.w3.org/2000/svg" xmlns:xlink="http://www.w3.org/1999/xlink" x="0px" y="0px"
	 viewBox="0 0 600 600" style="enable-background:new 0 0 600 600;" xml:space="preserve">
<rect x="-1" style="fill:none;" width="600" height="600"/>
<g>
	<g>
		<g>
			<path style="fill:#767DD5;" d="M387.795,315.909l-5.235-10.585c27.528-13.617,44.633-41.139,44.633-71.832
				c0-44.172-35.928-80.099-80.094-80.099c-30.341,0-57.725,16.822-71.469,43.906l-10.527-5.35
				c15.762-31.062,47.181-50.363,81.996-50.363c50.675,0,91.9,41.231,91.9,91.906C439,268.705,419.381,300.286,387.795,315.909z"/>
		</g>
		<g>
			
				<rect x="413.465" y="325.249" transform="matrix(0.707 0.7072 -0.7072 0.707 362.4318 -212.5796)" style="fill:#767DD5;" width="48.653" height="11.806"/>
		</g>
		<g>
			
				<rect x="220.525" y="135.568" transform="matrix(0.7072 0.7071 -0.7071 0.7072 172.6866 -134.0035)" style="fill:#767DD5;" width="55.183" height="11.806"/>
		</g>
		<g>
			<rect x="331" y="72" style="fill:#767DD5;" width="12" height="56"/>
		</g>
		<g>
			
				<rect x="441.191" y="119.053" transform="matrix(0.7071 0.7071 -0.7071 0.7071 233.5705 -273.6365)" style="fill:#767DD5;" width="11.806" height="52.146"/>
		</g>
		<g>
			<rect x="454" y="232" style="fill:#767DD5;" width="43" height="13"/>
		</g>
	</g>
	<g>
		<g>
			<path style="fill:#121331;" d="M345.647,312.024l-11.161-3.874c2.981-8.59,4.491-17.606,4.491-26.796
				c0-10.02-1.787-19.809-5.31-29.067c-11.997-31.558-42.742-52.762-76.513-52.762c-31.264,0-60.221,18.217-73.781,46.42
				l-10.642-5.119c15.514-32.261,48.651-53.107,84.423-53.107c38.643,0,73.827,24.259,87.548,60.371
				c4.036,10.608,6.082,21.803,6.082,33.264C350.783,291.858,349.054,302.177,345.647,312.024z"/>
		</g>
		<g>
			<path style="fill:#121331;" d="M318.966,374H166.458c-36.141,0-63.398-23.834-63.398-57.525c0-17.756,7.114-32.141,21.163-44.374
				c-0.231-1.568-0.334-2.73-0.334-4.356c0-19.959,16.327-35.716,36.389-35.716S196.667,245,196.667,269H184.86
				c0-12-11.029-24.966-24.582-24.966c-13.554,0-24.582,10.796-24.582,24.252c0,1.533,0.133,2.821,0.444,4.32
				c0.329,0.68,0.53,1.393,0.571,2.177c0.15,2.583-1.378,5.136-3.69,6.139c-12.049,10.077-18.154,20.892-18.154,35.466
				c0,27.407,21.7,45.612,51.591,45.612h152.508c34.388,0,60.325-22.411,60.325-54.361c0-25.124-15.848-44.222-42.384-52.489
				l3.505-10.858c31.736,9.881,50.686,32.668,50.686,63.234C391.098,346.198,360.088,374,318.966,374z"/>
		</g>
	</g>
	<g>
		<path style="fill:#767DD5;" d="M247.433,527.735h-0.548c-2.271,0-4.485-0.242-6.624-0.669
			c-9.074-1.856-16.661-7.794-20.835-16.303c-4.376-8.924-4.381-19.566-0.006-28.456l22.161-44.99
			c0.992-2.018,3.032-3.286,5.275-3.298c0.006,0,0.017,0,0.023,0c2.231,0,4.272,1.257,5.275,3.251l22.466,44.702
			c4.75,9.443,4.526,20.662-0.594,29.99c-4.889,8.913-13.358,14.597-23.233,15.6C249.682,527.678,248.563,527.735,247.433,527.735z
			 M246.932,453.17l-16.915,34.348c-2.773,5.627-2.767,12.383,0.012,18.045c2.589,5.269,7.056,8.797,12.585,9.927
			c1.378,0.288,2.808,0.438,4.272,0.438h0.548c0.726,0,1.453-0.035,2.168-0.104c5.95-0.611,11.086-4.093,14.078-9.547
			c3.251-5.926,3.396-13.029,0.392-19.002L246.932,453.17z"/>
	</g>
	<g>
		<path style="fill:#767DD5;" d="M157.003,484.451h-0.386c-1.672,0-3.361-0.173-5.021-0.507c-6.935-1.43-12.729-5.961-15.911-12.452
			c-3.321-6.78-3.315-14.851,0.006-21.596l15.629-31.742c0.992-2.018,3.032-3.286,5.275-3.298c0.006,0,0.017,0,0.023,0
			c2.231,0,4.272,1.257,5.275,3.251l15.842,31.535c3.609,7.183,3.442,15.704-0.444,22.783c-3.73,6.791-10.198,11.126-17.745,11.887
			C158.739,484.405,157.874,484.451,157.003,484.451z M156.669,434.019l-10.383,21.088c-1.724,3.494-1.718,7.667,0,11.184
			c0.917,1.868,3.13,5.154,7.679,6.076c0.876,0.184,1.77,0.277,2.652,0.277h0.386c0.444,0,0.882-0.023,1.314-0.069
			c3.661-0.369,6.791-2.49,8.619-5.834c2.024-3.678,2.116-8.083,0.248-11.795L156.669,434.019z"/>
	</g>
	<g>
		<path style="fill:#767DD5;" d="M339.403,484.451h-0.386c-1.672,0-3.361-0.173-5.021-0.507c-6.935-1.43-12.729-5.961-15.911-12.452
			c-3.321-6.78-3.315-14.851,0.006-21.596l15.629-31.742c0.992-2.018,3.032-3.286,5.275-3.298c0.006,0,0.017,0,0.023,0
			c2.231,0,4.272,1.257,5.275,3.251l15.842,31.535c3.609,7.183,3.442,15.704-0.444,22.783c-3.73,6.791-10.198,11.126-17.745,11.887
			C341.138,484.405,340.273,484.451,339.403,484.451z M339.069,434.019l-10.383,21.088c-1.724,3.494-1.718,7.667,0,11.184
			c0.917,1.868,3.13,5.154,7.679,6.076c0.876,0.184,1.77,0.277,2.652,0.277h0.386c0.444,0,0.882-0.023,1.314-0.069
			c3.661-0.369,6.791-2.49,8.619-5.834c2.024-3.678,2.116-8.083,0.248-11.795L339.069,434.019z"/>
	</g>
</g>
</svg>
