<?xml version="1.0" encoding="iso-8859-1"?>
<!-- Generator: Adobe Illustrator 17.1.0, SVG Export Plug-In . SVG Version: 6.00 Build 0)  -->
<!DOCTYPE svg PUBLIC "-//W3C//DTD SVG 1.1//EN" "http://www.w3.org/Graphics/SVG/1.1/DTD/svg11.dtd">
<svg version="1.1" id="Layer_1" xmlns="http://www.w3.org/2000/svg" xmlns:xlink="http://www.w3.org/1999/xlink" x="0px" y="0px"
	 viewBox="0 0 600 600" style="enable-background:new 0 0 600 600;" xml:space="preserve">
<rect x="-0.803" y="0.185" style="fill:none;" width="600" height="600"/>
<g>
	<g>
		<path style="fill:#767DD5;" d="M306.486,431.255c-71.128,0-128.993-57.864-128.993-128.993S235.358,173.27,306.486,173.27
			s128.993,57.864,128.993,128.993S377.615,431.255,306.486,431.255z M306.486,188.445c-62.762,0-113.817,51.055-113.817,113.817
			S243.724,416.08,306.486,416.08s113.817-51.055,113.817-113.817S369.249,188.445,306.486,188.445z"/>
	</g>
	<g>
		
			<rect x="400.181" y="432.545" transform="matrix(0.7071 0.7072 -0.7072 0.7071 438.5356 -178.3394)" style="fill:#767DD5;" width="68.676" height="15.174"/>
	</g>
	<g>
		
			<rect x="127.79" y="164.771" transform="matrix(0.7071 0.7071 -0.7071 0.7071 170.7133 -67.4215)" style="fill:#767DD5;" width="77.903" height="15.174"/>
	</g>
	<g>
		<rect x="300.197" y="74.185" style="fill:#767DD5;" width="13" height="75"/>
	</g>
	<g>
		<rect x="300.197" y="466.185" style="fill:#767DD5;" width="13" height="60"/>
	</g>
	<g>
		
			<rect x="171.448" y="407.605" transform="matrix(0.7071 0.7071 -0.7071 0.7071 367.8975 4.0709)" style="fill:#767DD5;" width="15.174" height="77.044"/>
	</g>
	<g>
		
			<rect x="440.059" y="140.714" transform="matrix(0.7071 0.7071 -0.7071 0.7071 256.6377 -264.5394)" style="fill:#767DD5;" width="15.174" height="73.612"/>
	</g>
	<g>
		<rect x="74.197" y="300.185" style="fill:#767DD5;" width="75" height="13"/>
	</g>
	<g>
		<rect x="452.197" y="300.185" style="fill:#767DD5;" width="74" height="13"/>
	</g>
</g>
</svg>
