<?xml version="1.0" encoding="iso-8859-1"?>
<!-- Generator: Adobe Illustrator 17.1.0, SVG Export Plug-In . SVG Version: 6.00 Build 0)  -->
<!DOCTYPE svg PUBLIC "-//W3C//DTD SVG 1.1//EN" "http://www.w3.org/Graphics/SVG/1.1/DTD/svg11.dtd">
<svg version="1.1" id="Layer_1" xmlns="http://www.w3.org/2000/svg" xmlns:xlink="http://www.w3.org/1999/xlink" x="0px" y="0px"
	 viewBox="0 0 600 600" style="enable-background:new 0 0 600 600;" xml:space="preserve">
<rect x="-1" style="fill:none;" width="600" height="600"/>
<g>
	<g>
		<path style="fill:#121331;" d="M440.699,255.142l-12.758-4.433c4.36-12.586,6.577-25.806,6.577-39.276
			c0-14.697-2.619-29.051-7.791-42.627c-17.587-46.255-62.661-77.338-112.168-77.338c-45.84,0-88.302,26.703-108.171,68.037
			l-12.177-5.858c22.105-45.978,69.343-75.689,120.348-75.689c55.082,0,105.235,34.579,124.794,86.046
			c5.759,15.119,8.674,31.083,8.674,47.429C448.027,226.407,445.56,241.118,440.699,255.142z"/>
	</g>
	<g>
		<path style="fill:#121331;" d="M403.837,349H183.544c-51.196,0-89.799-35.636-89.799-84.094c0-25.476,10.614-47.509,30.76-64.832
			c-0.455-2.652-0.673-5.053-0.673-7.797c0-27.904,22.785-52.873,50.787-52.873S225.406,166,225.406,188h-13.51
			c0-15-16.722-34.974-37.277-34.974s-37.277,17.831-37.277,38.281c0,2.678,0.277,5.729,0.884,8.368
			c0.297,0.66,0.488,1.671,0.561,2.423c0.29,3.008-1.412,6.165-4.09,7.353c-17.963,14.856-27.442,33.183-27.442,55.136
			c0,40.754,32.798,70.414,76.29,70.414h220.293c50.688,0,88.909-35.008,88.909-82.952c0-37.416-23.932-67.546-62.463-79.525
			l4.011-12.618c44.388,13.813,71.962,48.694,71.962,92.245C506.255,307.799,462.223,349,403.837,349z"/>
	</g>
</g>
<polygon style="fill:#767DD5;" points="353.264,249.557 329.929,255.81 309.77,244.171 329.929,232.533 353.264,238.786 
	354.776,233.141 337.085,228.401 346.512,222.959 343.59,217.898 334.839,222.951 339.294,206.325 333.649,204.813 327.44,227.083 
	304,240.476 304,218.703 323.518,199.427 319.265,195.295 304,210.439 304,198 298,198 298,210.422 288.342,195.295 
	284.051,199.427 298,218.686 298,237.745 281.697,228.148 275.604,204.813 270.039,206.325 274.82,224.016 265.413,218.574 
	262.501,223.634 271.257,228.687 254.634,233.141 256.148,238.786 278.418,232.818 298.083,244.171 278.419,255.524 
	256.149,249.557 254.637,255.202 271.262,259.656 262.511,264.709 265.433,269.769 274.86,264.327 270.119,282.018 275.764,283.53 
	281.697,260.195 298,250.598 298,269.763 285.053,288.916 289.025,293.048 298,278.027 298,291 304,291 304,278.069 304.01,277.565 
	320.349,293.048 324.541,288.916 303.979,269.301 304,269.805 304,247.867 327.44,261.26 333.528,283.53 339.233,282.018 
	334.809,265.392 343.575,270.445 346.504,265.384 337.082,259.942 354.774,255.202 "/>
<polygon style="fill:#767DD5;" points="453.494,460.192 418.275,469.629 387.85,452.063 418.275,434.497 453.494,443.935 
	455.776,435.415 429.076,428.261 443.303,420.048 438.893,412.41 425.685,420.035 432.409,394.942 423.889,392.66 414.448,426.272 
	379,446.486 379,413.625 408.529,384.531 402.074,378.295 379,401.152 379,382 370,382 370,401.126 355.467,378.295 
	348.968,384.531 370,413.599 370,442.364 345.437,427.879 336.262,392.66 327.874,394.942 335.094,421.643 320.9,413.429 
	316.507,421.067 329.722,428.692 304.634,435.415 306.918,443.935 340.531,434.928 370.21,452.063 340.531,469.198 306.92,460.192 
	304.638,468.711 329.73,475.434 316.523,483.059 320.933,490.697 335.16,482.484 328.005,509.184 336.525,511.467 345.437,476.247 
	370,461.762 370,490.688 350.501,519.596 356.476,525.831 370,503.161 370,523 379,523 379,503.224 379.085,502.464 
	403.781,525.831 410.126,519.596 379.031,489.991 379,490.751 379,457.64 414.448,477.855 423.672,511.467 432.3,509.184 
	425.631,484.091 438.866,491.717 443.289,484.079 429.069,475.865 455.773,468.711 "/>
<polygon style="fill:#767DD5;" points="247.026,427.034 225.403,432.828 206.724,422.043 225.403,411.259 247.026,417.053 
	248.427,411.822 232.035,407.43 240.769,402.388 238.062,397.698 229.953,402.38 234.081,386.974 228.85,385.573 223.408,406.209 
	202,418.619 202,398.444 219.774,380.582 215.989,376.754 202,390.787 202,380 196,380 196,385.999 186.96,376.754 183.029,380.582 
	196,393.656 196,416.089 180.802,407.196 175.111,385.573 169.931,386.974 174.349,403.367 165.628,398.324 162.927,403.013 
	171.038,407.695 155.635,411.822 157.037,417.053 177.673,411.523 195.894,422.043 177.673,432.563 157.037,427.034 
	155.636,432.264 171.042,436.392 162.933,441.073 165.64,445.763 174.375,440.72 169.983,457.113 175.213,458.514 180.802,436.891 
	196,427.998 196,451.211 183.911,463.505 187.638,467.333 196,458.868 196,466 202,466 202,453.453 202.379,452.987 
	216.682,467.333 220.489,463.505 202.39,445.329 202,445.796 202,425.467 223.408,437.878 228.894,458.514 234.103,457.113 
	229.964,441.707 238.067,446.389 240.772,441.699 232.036,436.656 248.428,432.264 "/>
</svg>
