<?xml version="1.0" encoding="iso-8859-1"?>
<!-- Generator: Adobe Illustrator 17.1.0, SVG Export Plug-In . SVG Version: 6.00 Build 0)  -->
<!DOCTYPE svg PUBLIC "-//W3C//DTD SVG 1.1//EN" "http://www.w3.org/Graphics/SVG/1.1/DTD/svg11.dtd">
<svg version="1.1" id="Layer_1" xmlns="http://www.w3.org/2000/svg" xmlns:xlink="http://www.w3.org/1999/xlink" x="0px" y="0px"
	 viewBox="0 0 200 200" style="enable-background:new 0 0 200 200;" xml:space="preserve">
<path style="fill:#F4F3F8;" d="M164.524,200.168H35.112c-19.492,0-35.294-15.802-35.294-35.294V35.462
	c0-19.492,15.802-35.294,35.294-35.294h129.412c19.492,0,35.294,15.802,35.294,35.294v129.412
	C199.818,184.366,184.016,200.168,164.524,200.168z"/>
<g>
	<g>
		<path style="fill:#121331;" d="M99.998,154.551L99.998,154.551c-1.329,0-2.675-0.142-4.001-0.42
			c-7.212-1.511-12.941-7.427-14.256-14.717c-1.434-7.95,2.237-15.675,9.189-19.568V54.016c0-4.725,3.842-8.567,8.569-8.567
			c4.861,0,8.704,3.842,8.704,8.567v65.315c6.332,3.115,10.363,9.532,10.363,16.653c0,4.959-1.933,9.623-5.438,13.129
			C109.62,152.62,104.957,154.551,99.998,154.551z M99.634,48.903c-2.955,0-5.249,2.294-5.249,5.112v67.957l-0.972,0.472
			c-6.17,3.011-9.496,9.584-8.272,16.356c1.066,5.92,5.715,10.724,11.564,11.95c5.151,1.071,10.353-0.457,13.98-4.08
			c2.854-2.856,4.426-6.651,4.426-10.687c0-6.114-3.65-11.59-9.301-13.948l-1.063-0.444V54.016
			C104.748,51.197,102.454,48.903,99.634,48.903z"/>
	</g>
	<g>
		<rect x="98" y="93" style="fill:#767DD5;" width="3" height="45"/>
	</g>
	<g>
		<rect x="112" y="59" style="fill:#767DD5;" width="7" height="4"/>
	</g>
	<g>
		<rect x="112" y="70" style="fill:#767DD5;" width="7" height="3"/>
	</g>
	<g>
		<rect x="112" y="80" style="fill:#767DD5;" width="7" height="3"/>
	</g>
	<g>
		<rect x="112" y="90" style="fill:#767DD5;" width="7" height="4"/>
	</g>
	<g>
		<rect x="112" y="101" style="fill:#767DD5;" width="7" height="3"/>
	</g>
</g>
</svg>
