<?xml version="1.0" encoding="iso-8859-1"?>
<!-- Generator: Adobe Illustrator 17.1.0, SVG Export Plug-In . SVG Version: 6.00 Build 0)  -->
<!DOCTYPE svg PUBLIC "-//W3C//DTD SVG 1.1//EN" "http://www.w3.org/Graphics/SVG/1.1/DTD/svg11.dtd">
<svg version="1.1" id="Layer_1" xmlns="http://www.w3.org/2000/svg" xmlns:xlink="http://www.w3.org/1999/xlink" x="0px" y="0px"
	 viewBox="0 0 200 200" style="enable-background:new 0 0 200 200;" xml:space="preserve">
<path style="fill:#F4F3F8;" d="M164.524,200.168H35.112c-19.492,0-35.294-15.802-35.294-35.294V35.462
	c0-19.492,15.802-35.294,35.294-35.294h129.412c19.492,0,35.294,15.802,35.294,35.294v129.412
	C199.818,184.366,184.016,200.168,164.524,200.168z"/>
<g>
	<g>
		<path style="fill:#767DD5;" d="M92.491,78.161l-4.09-1.831c5.076-11.358,16.397-18.698,28.839-18.698
			c9.937,0,19.095,4.539,25.125,12.451l-3.565,2.72c-5.177-6.79-13.038-10.686-21.56-10.686
			C106.563,62.116,96.849,68.414,92.491,78.161z"/>
	</g>
	<g>
		<path style="fill:#767DD5;" d="M150.498,123H124v-3h26.498c9.587,0,17.098-7.528,17.098-16.865c0-5.792-3.066-11.072-8.417-14.3
			l2.321-3.894c6.723,4.062,10.581,10.077,10.581,17.478C172.081,114.272,162.599,123,150.498,123z"/>
	</g>
	<g>
		<g>
			<path style="fill:#121331;" d="M110.399,115.538l-4.239-1.463c0.999-2.886,1.502-5.908,1.502-8.98c0-3.353-0.6-6.628-1.782-9.738
				c-4.016-10.57-14.317-17.671-25.629-17.671c-10.471,0-20.172,6.103-24.718,15.545l-4.038-1.945
				C56.781,80.3,68.067,73.201,80.25,73.201c13.165,0,25.147,8.264,29.825,20.562c1.375,3.622,2.072,7.434,2.072,11.332
				C112.147,108.666,111.56,112.181,110.399,115.538z"/>
		</g>
		<g>
			<path style="fill:#121331;" d="M101.145,142H49.594c-11.75,0-21.674-10.242-21.674-22.365c0-6.326,2.676-12.392,7.217-16.489
				c-0.105-0.646-0.18-1.472-0.18-2.251c0-6.957,5.628-13.012,12.547-13.012S60.052,93,60.052,100h-4.485
				c0-4-3.618-7.633-8.063-7.633s-8.063,3.846-8.063,8.33c0,0.766,0.105,1.71,0.285,2.361l0.092,0.389l-0.061,1.4l-0.819,0.941
				c-4.029,3.188-6.534,8.237-6.534,13.584c0,9.692,7.87,17.628,17.19,17.628h51.552c10.918,0,20.142-9.281,20.142-20.574
				c0-8.996-5.952-17.247-14.15-19.796l1.331-4.219c10.025,3.118,17.304,13.331,17.304,24.241
				C125.771,130.375,114.494,142,101.145,142z"/>
		</g>
	</g>
	<g>
		<path style="fill:#767DD5;" d="M160.86,95.618l-4.204-1.55c0.631-1.712,0.95-3.517,0.95-5.361c0-8.531-6.942-15.473-15.473-15.473
			s-15.473,6.942-15.473,15.473c0,0.563,0.031,1.119,0.088,1.666l-4.458,0.469c-0.074-0.701-0.114-1.415-0.114-2.135
			c0-11.004,8.952-19.958,19.958-19.958s19.958,8.954,19.958,19.958C162.091,91.082,161.679,93.408,160.86,95.618z"/>
	</g>
</g>
</svg>
