<?xml version="1.0" encoding="iso-8859-1"?>
<!-- Generator: Adobe Illustrator 17.1.0, SVG Export Plug-In . SVG Version: 6.00 Build 0)  -->
<!DOCTYPE svg PUBLIC "-//W3C//DTD SVG 1.1//EN" "http://www.w3.org/Graphics/SVG/1.1/DTD/svg11.dtd">
<svg version="1.1" id="Layer_1" xmlns="http://www.w3.org/2000/svg" xmlns:xlink="http://www.w3.org/1999/xlink" x="0px" y="0px"
	 viewBox="0 0 50 50" style="enable-background:new 0 0 50 50;" xml:space="preserve">
<g>
	<g>
		<g>
			<path style="fill:#121331;" d="M22.597,43.469c-11.871,0-21.528-9.658-21.528-21.528S10.726,0.413,22.597,0.413
				s21.528,9.658,21.528,21.528S34.469,43.469,22.597,43.469z M22.597,2.463c-10.74,0-19.478,8.738-19.478,19.478
				s8.738,19.478,19.478,19.478s19.478-8.738,19.478-19.478S33.337,2.463,22.597,2.463z"/>
		</g>
		<g>
			<path style="fill:#767DD5;" d="M11.07,21.877H9.02c0-6,6.48-13.512,13.48-13.512v2.05C16.5,10.415,11.07,15.877,11.07,21.877z"/>
		</g>
		<g>
			
				<rect x="33.613" y="41.675" transform="matrix(0.7071 0.7071 -0.7071 0.7071 42.6924 -17.6683)" style="fill:#121331;" width="18.122" height="2.05"/>
		</g>
	</g>
	<rect x="-0.5" y="-0.123" style="fill:none;" width="50" height="50"/>
</g>
</svg>
