<?xml version="1.0" encoding="iso-8859-1"?>
<!-- Generator: Adobe Illustrator 17.1.0, SVG Export Plug-In . SVG Version: 6.00 Build 0)  -->
<!DOCTYPE svg PUBLIC "-//W3C//DTD SVG 1.1//EN" "http://www.w3.org/Graphics/SVG/1.1/DTD/svg11.dtd">
<svg version="1.1" id="Layer_1" xmlns="http://www.w3.org/2000/svg" xmlns:xlink="http://www.w3.org/1999/xlink" x="0px" y="0px"
	 viewBox="0 0 200 200" style="enable-background:new 0 0 200 200;" xml:space="preserve">
<g>
	<path style="fill:#F4F3F8;" d="M164.524,200.168H35.112c-19.492,0-35.294-15.802-35.294-35.294V35.462
		c0-19.492,15.802-35.294,35.294-35.294h129.412c19.492,0,35.294,15.802,35.294,35.294v129.412
		C199.818,184.366,184.016,200.168,164.524,200.168z"/>
	<g>
		<g>
			<path style="fill:#767DD5;" d="M115.912,71.07c-13.453,0-25.532,8.008-30.774,20.398l3.622,1.527
				c4.62-10.932,15.279-17.996,27.151-17.996c16.25,0,29.469,13.219,29.469,29.469c0,11.343-6.631,21.806-16.891,26.656l1.681,3.553
				c11.626-5.499,19.14-17.355,19.14-30.21C149.31,86.054,134.326,71.07,115.912,71.07z"/>
			
				<rect x="140.173" y="138.201" transform="matrix(-0.7072 -0.707 0.707 -0.7072 155.3852 344.6788)" style="fill:#767DD5;" width="17.78" height="3.929"/>
			
				<rect x="69.644" y="68.87" transform="matrix(0.7071 0.7071 -0.7071 0.7071 73.4395 -35.6305)" style="fill:#767DD5;" width="20.17" height="3.929"/>
			<rect x="114.5" y="44" style="fill:#767DD5;" width="6" height="22"/>
			
				<rect x="150.496" y="62.642" transform="matrix(0.7071 0.7071 -0.7071 0.7071 95.6874 -86.6672)" style="fill:#767DD5;" width="3.929" height="19.058"/>
			<rect x="153.5" y="105" style="fill:#767DD5;" width="22" height="5"/>
		</g>
		<path style="fill:#121331;" d="M113.439,110.238c-4.783-13.121-14.956-19.653-30.439-20.346
			c-21.408-1.074-29.433,12.387-31.395,16.551c-2.443-0.41-5.017-0.163-7.528,0.877c-6.381,2.64-7.597,9.482-7.809,12.712
			c-3.216,0.94-9.405,4.474-9.612,17.804c-0.269,17.382,16.373,21.073,16.542,21.108l0.403,0.042l66.992-0.008
			c0.215-0.023,21.634-2.387,20.924-23.142C130.852,116.383,117.108,111.259,113.439,110.238z M110.398,155H43.82
			c-1.692,0-13.441-3.686-13.234-17.131c0.211-13.702,7.386-14.245,7.663-14.26l2.014-0.047l-0.104-2.007
			c-0.004-0.084-0.353-8.217,5.422-10.608c2.697-1.113,5.46-1.081,7.789,0.093c2.26,1.14,3.914,3.212,4.532,5.691l3.814-0.951
			c-0.872-3.483-3.176-6.396-6.311-8.078c1.94-3.913,8.989-13.968,27.419-13.202C103.199,95.414,112.689,105,112.689,133h3.929
			c0-6-0.621-12.55-1.801-17.361c4.422,1.917,12.298,6.838,12.771,20.683C128.171,153.367,110.935,155,110.398,155z"/>
	</g>
</g>
</svg>
